<?xml version="1.0" encoding="utf-8"?><svg viewBox="0 0 512 512" xmlns="http://www.w3.org/2000/svg" xmlns:xlink="http://www.w3.org/1999/xlink"><style>:root>svg{display:none}:root>svg:target{display:block}</style><svg viewBox="0 0 37 32" id="01" xmlns="http://www.w3.org/2000/svg"><path d="M31.872 29.407l-.062-.243c.61-.156.973-.362 1.337-.744.354-.37.58-.83.71-1.472l.245.05-.245-.05c.043-.213.07-.549.082-1.794.013-1.238.01-3.352.002-7.104l-.019-8.365-.142-.4c-.177-.5-.415-.88-.73-1.175-.316-.296-.722-.518-1.253-.68-.068-.02-.16-.04-.462-.057a42.14 42.14 0 00-1.679-.038c-1.75-.018-4.984-.022-11.11-.027-3.554-.003-6.822 0-9.225.007-1.201.004-2.186.009-2.882.014a104.712 104.712 0 00-1.044.014 3.363 3.363 0 00-.064.003h-.007c-.686.104-1.2.306-1.593.614-.392.306-.682.734-.893 1.325l-.235-.084.235.084-.143.4-.02 8.365a724.99 724.99 0 00.003 7.093c.012 1.249.04 1.59.082 1.8l29.112 2.463zm0 0l-.062-.243c-.225.058-.379.093-2.11.11m2.172.133l-2.172-.133m0 0c-1.721.017-4.979.018-11.385.017m11.385-.017l-11.385.017m0 0c-5.654 0-8.924-.004-10.828-.018m10.828.018l-10.828-.018m0 0a80.292 80.292 0 01-1.95-.03m1.95.03l-1.95-.03m0 0c-.401-.015-.557-.032-.621-.047m.62.046l-.62-.046m0 0c-.608-.144-1.082-.404-1.434-.772m1.434.772l-1.434-.772m0 0c-.353-.368-.597-.857-.722-1.48l.722 1.48zm9.665-27.6c-.294.09-.588.283-.837.517-.25.235-.469.527-.602.832-.146.334-.165.617-.195 1.915l-.029 1.262-3.148.025c-1.866.016-2.824.024-3.435.087-.637.065-.917.192-1.415.422-1.447.67-2.36 1.897-2.64 3.527-.05.29-.076.733-.087 2.015-.012 1.29-.01 3.445-.002 7.173l.02 8.537v.037l.01.036.156.507c.265.862.623 1.474 1.22 2.076.615.62 1.342 1.024 2.312 1.296l.54.153.034.009h26.519l.034-.01.54-.151c1.823-.513 2.996-1.627 3.532-3.373l.156-.508.01-.035v-.037l.02-8.51c.008-2.869.007-5.036-.002-6.526-.004-.744-.01-1.32-.018-1.731a8.891 8.891 0 00-.033-.764c-.179-1.186-.672-2.17-1.437-2.889-.766-.72-1.788-1.161-3.004-1.29-.356-.037-1.967-.067-3.57-.067l-2.676-.001-.002-.887c-.001-.956-.028-1.58-.138-2.034-.116-.48-.322-.771-.646-1.07a6.514 6.514 0 01-.081-.077 1.77 1.77 0 00-.367-.293c-.188-.104-.418-.16-.773-.192C22.49.746 21.374.748 19.184.75l-.864.002c-1.353.001-2.604.009-3.53.02a76.49 76.49 0 00-1.118.02 15.93 15.93 0 00-.429.016h-.002a.476.476 0 00-.094.016zm9.784 1.833l.047.005a.248.248 0 01.085.055c.011.013.033.044.053.14.044.21.059.586.072 1.348l.021 1.152h-9.724V2.853l.125-.125.124-.125h4.532c1.576 0 2.746.006 3.536.018.395.006.692.013.897.022.103.005.18.01.232.014zm.061.008zm-2.56 13.291l-.15-.15-.02-1.66-.01-.774a1.25 1.25 0 00-1.25-1.234H17.55c-.69 0-1.25.56-1.25 1.25v2.428l-.134.15-.124.14-1.654.018-.776.01a1.25 1.25 0 00-1.236 1.25v1.462c0 .69.56 1.25 1.25 1.25h.71c.914 0 1.365.005 1.617.045.12.02.167.043.19.059.02.014.04.033.074.085.004.022.008.054.012.098.01.095.018.229.028.395.018.331.033.78.043 1.277l.015.782a1.25 1.25 0 001.25 1.226h1.488a1.25 1.25 0 001.25-1.226l.014-.782c.01-.497.026-.946.044-1.277a9.723 9.723 0 01.04-.493.298.298 0 01.073-.085.454.454 0 01.19-.059c.252-.04.703-.045 1.617-.045h.71c.69 0 1.25-.56 1.25-1.25v-1.461a1.25 1.25 0 00-1.235-1.25l-.77-.01-1.655-.02-.15-.149zm-.052 4.36z"/></svg><svg viewBox="0 0 512 512" id="arrow" xmlns="http://www.w3.org/2000/svg"><!--! Font Awesome Pro 6.2.0 by @fontawesome - https://fontawesome.com License - https://fontawesome.com/license (Commercial License) Copyright 2022 Fonticons, Inc.--><path d="M502.6 278.6c12.5-12.5 12.5-32.8 0-45.3l-128-128c-12.5-12.5-32.8-12.5-45.3 0s-12.5 32.8 0 45.3l73.4 73.4H32c-17.7 0-32 14.3-32 32s14.3 32 32 32h370.7l-73.4 73.4c-12.5 12.5-12.5 32.8 0 45.3s32.8 12.5 45.3 0l128-128z"/></svg><svg viewBox="0 0 19 18" id="basket" xmlns="http://www.w3.org/2000/svg"><path d="M.8.216c-.44 0-.8.386-.8.857 0 .472.36.858.8.858h1.775l2.1 9.004c.178.763.816 1.287 1.55 1.287H15.4c.722 0 1.334-.513 1.525-1.26L19 2.789H5.6L6 4.504h10.925L15.4 10.507H6.225l-2.1-9.005a1.715 1.715 0 00-.567-.93 1.519 1.519 0 00-.982-.356H.8zm13.6 12.006c-1.316 0-2.4 1.162-2.4 2.572 0 1.41 1.084 2.573 2.4 2.573 1.316 0 2.4-1.162 2.4-2.573 0-1.41-1.084-2.572-2.4-2.572zm-7.2 0c-1.316 0-2.4 1.162-2.4 2.572 0 1.41 1.084 2.573 2.4 2.573 1.316 0 2.4-1.162 2.4-2.573 0-1.41-1.084-2.572-2.4-2.572zm0 1.715c.45 0 .8.375.8.857 0 .483-.35.858-.8.858-.45 0-.8-.376-.8-.858 0-.483.35-.857.8-.857zm7.2 0c.45 0 .8.375.8.857 0 .483-.35.858-.8.858-.45 0-.8-.376-.8-.858 0-.483.35-.857.8-.857z"/></svg><svg viewBox="0 0 10 8" id="check" xmlns="http://www.w3.org/2000/svg"><path fill-rule="evenodd" clip-rule="evenodd" d="M9.828.195a.73.73 0 010 .943L3.945 7.805a.54.54 0 01-.832 0L.173 4.47a.731.731 0 010-.942.54.54 0 01.831 0L3.53 6.39 8.996.195a.54.54 0 01.832 0z"/></svg><svg viewBox="0 0 25 27" id="phone1" xmlns="http://www.w3.org/2000/svg"><path d="M12.55 0C5.69 0 .1 5.993.1 13.345c0 2.357.578 4.646 1.659 6.667L0 26.933l6.595-1.858a11.8 11.8 0 005.955 1.63c6.86 0 12.45-5.993 12.45-13.346 0-3.569-1.294-6.922-3.643-9.44A12.321 12.321 0 0017.32 1.01 11.617 11.617 0 0012.551 0zm.013 2.249c2.764 0 5.352 1.158 7.311 3.259a11.162 11.162 0 012.244 3.602c.52 1.347.786 2.791.784 4.249 0 6.114-4.648 11.083-10.352 11.083a9.667 9.667 0 01-5.264-1.549l-.376-.229-3.92 1.105 1.043-4.094-.252-.431a11.618 11.618 0 01-1.583-5.899C2.211 7.232 6.847 2.25 12.563 2.25zM8.14 7.178c-.201 0-.54.08-.83.417-.276.337-1.092 1.158-1.092 2.788 0 1.643 1.118 3.218 1.256 3.447.176.23 2.21 3.596 5.34 5.023.74.364 1.318.566 1.77.714.742.256 1.42.215 1.96.135.603-.095 1.834-.808 2.098-1.59.264-.78.264-1.44.189-1.588-.088-.135-.29-.216-.603-.364-.314-.188-1.847-.996-2.123-1.104-.29-.108-.465-.162-.704.161-.201.337-.804 1.091-.98 1.307-.188.229-.364.255-.666.094-.326-.175-1.331-.525-2.512-1.656-.93-.89-1.546-1.98-1.734-2.317-.15-.323-.013-.525.138-.673.138-.148.34-.39.465-.593.163-.188.214-.336.314-.552.1-.229.05-.417-.025-.579-.075-.148-.704-1.818-.967-2.478-.252-.646-.503-.565-.704-.579-.176 0-.377-.013-.59-.013z"/></svg><svg viewBox="0 0 60 60" id="play" xmlns="http://www.w3.org/2000/svg"><path d="M60 30a30 30 0 11-60 0 30 30 0 0160 0zM25.462 19.099a1.876 1.876 0 00-2.962 1.526v18.75a1.874 1.874 0 002.962 1.526l13.125-9.375a1.874 1.874 0 000-3.052l-13.125-9.375z"/><defs><linearGradient id="fa" x1="30" y1="0" x2="30" y2="60" gradientUnits="userSpaceOnUse"><stop stop-color="#2186FA"/><stop offset="1" stop-color="#2186FA" stop-opacity=".4"/></linearGradient></defs></svg><svg viewBox="0 0 59 48" id="quote" xmlns="http://www.w3.org/2000/svg"><path d="M32.372 11.12c0 2.96.804 5.52 2.453 7.6 2.493 3.12 7.359 3.52 10.174 2.88 1.166 6.6-4.464 15-11.742 18.6l5.59 7.8c10.978-5.2 21.795-17.12 19.945-32.2C57.626 6.28 52.077 0 44.235 0c-3.418 0-6.273 1-8.525 3-2.252 2-3.338 4.72-3.338 8.12zM0 11.12c0 2.96.804 5.52 2.453 7.6 2.533 3.12 7.36 3.52 10.174 2.88 1.166 6.6-4.464 15-11.742 18.6l5.59 7.8C17.452 42.8 28.23 30.88 26.38 15.8 25.214 6.28 19.705 0 11.863 0 8.445 0 5.59 1 3.338 3 1.086 5 0 7.72 0 11.12z"/></svg><svg viewBox="0 0 15 15" id="rhomb" xmlns="http://www.w3.org/2000/svg"><path d="M3.214 7.5L7.5 3.214 11.786 7.5 7.5 11.786 3.214 7.5z"/><path d="M14.673 6.71L8.29.327a1.117 1.117 0 00-1.579 0L.326 6.711a1.117 1.117 0 000 1.578l6.385 6.385a1.117 1.117 0 001.578 0l6.385-6.385a1.117 1.117 0 00-.001-1.578zM7.5 13.949L1.053 7.5 7.5 1.052 13.948 7.5 7.5 13.948z"/></svg></svg>